<?xml version="1.0" encoding="utf-8"?>
<!-- Generator: Adobe Illustrator 22.0.1, SVG Export Plug-In . SVG Version: 6.00 Build 0)  -->
<svg version="1.1" id="Слой_1" xmlns="http://www.w3.org/2000/svg" xmlns:xlink="http://www.w3.org/1999/xlink" x="0px" y="0px"
	 viewBox="0 0 250 250" style="enable-background:new 0 0 250 250;" xml:space="preserve">
<style type="text/css">
	.st0{fill:#076CDB;}
	.st1{fill:#FFFFFF;}
</style>
<path class="st0" d="M238.1,154.3c-15.6,62.3-79.2,100.4-141.8,84.8C33.6,223.7-4.7,160.3,10.9,98C26.8,35.4,90.2-2.6,152.8,12.9
	C215.6,28.5,253.7,91.9,238.1,154.3z"/>
<g>
	<path class="st1" d="M70.9,102.2v58.6h-4.5c-1.3-0.3-2.6,0.3-3.7,1.3c-1.1,1.1-1.6,2.1-1.6,3.4v4.8h126.8v-4.8
		c0-1.3-0.5-2.6-1.6-3.4c-1.1-1.1-2.4-1.6-3.7-1.6h-4.2v-58.4h-19.5v58.4h-9.8v-58.4h-19.5v58.4h-9.8v-58.4h-19.5v58.4h-9.8v-58.4
		H70.9z"/>
	<path class="st1" d="M196.1,177c-1.1-1.1-2.4-1.6-3.7-1.6c0,0-135.8,0-135.8,0.3c-1.3-0.3-2.6,0.3-3.7,1.3
		c-1.1,1.1-1.6,2.1-1.6,3.4v9.8h146.3v-9.8C197.7,179.1,197.1,177.8,196.1,177z"/>
	<path class="st1" d="M197.7,90.4v-9.8l-73.2-29.1L51.3,80.9v9.8h9.8h126.8c0-0.1,0-0.2,0-0.3H197.7z"/>
	<path class="st1" d="M62.7,95.9c1.1,0.8,2.4,1.3,3.7,1.3h116.2c1.3,0.3,2.6-0.3,3.7-1.3c1-1,1.5-2,1.6-3.2H61.1
		C61.1,94,61.6,95.1,62.7,95.9z"/>
</g>
</svg>
