<svg width="56" height="56" xmlns="http://www.w3.org/2000/svg"><g fill="none" fill-rule="evenodd"><rect fill="#F8921A" width="56" height="56" rx="28"/><path d="M41.597 23.482c.711-4.183-2.289-6.521-6.432-8.136l1.506-5.654-3.29-.95-1.466 5.505a133.59 133.59 0 0 0-2.637-.723l1.476-5.54-3.288-.95-1.507 5.652c-.716-.191-1.42-.38-2.101-.576l.004-.017-4.538-1.312-.978 3.675s2.443.653 2.39.688c1.332.386 1.55 1.32 1.49 2.055l-1.714 6.44c.091.027.21.065.341.124l-.348-.1-2.404 9.022c-.175.422-.608 1.05-1.54.783.032.05-2.39-.692-2.39-.692l-1.75 3.921 4.282 1.236c.797.231 1.577.472 2.345.7l-1.521 5.717 3.286.95 1.507-5.657c.897.28 1.768.54 2.621.785l-1.501 5.63 3.29.95 1.521-5.707c5.62 1.265 9.88.926 11.807-4.368 1.553-4.262.106-6.782-2.824-8.477 2.178-.465 3.848-1.911 4.363-4.974zm-7.86 10.896c-1.136 4.274-8.001 1.768-10.231 1.126l2.018-7.575c2.23.645 9.401 1.993 8.214 6.45zm-7.29-9.917l1.831-6.87c1.857.536 7.856 1.603 6.777 5.658-1.037 3.887-6.75 1.749-8.607 1.212z" fill="#FFF"/></g></svg>