<?xml version="1.0" encoding="utf-8"?>
<!-- Generator: Adobe Illustrator 22.0.1, SVG Export Plug-In . SVG Version: 6.00 Build 0)  -->
<svg version="1.1" id="Слой_2" xmlns="http://www.w3.org/2000/svg" xmlns:xlink="http://www.w3.org/1999/xlink" x="0px" y="0px"
	 viewBox="0 0 335 335" style="enable-background:new 0 0 335 335;" xml:space="preserve">
<style type="text/css">
	.st0{display:none;opacity:0.42;fill:#EC0053;}
	.st1{fill:#05ABE8;}
	.st2{fill:#116BB6;}
	.st3{opacity:0.58;fill:#EC0053;}
</style>
<path class="st0" d="M254.8,334.9l-175.7-9.3c-5.2-0.3-9.4-4.6-9.4-9.9V204.9c0-5.7,4.8-10.2,10.4-9.9l175.7,9.3
	c5.2,0.3,9.4,4.6,9.4,9.9v110.8C265.3,330.7,260.5,335.2,254.8,334.9z"/>
<rect x="153.4" y="130.5" class="st1" width="14.9" height="14.9"/>
<rect x="111.7" y="37.5" class="st2" width="27" height="27"/>
<path class="st2" d="M207.8,265.9c0,5.8,2.3,11,6.1,14.8c3.8,3.8,9,6.1,14.8,6.1l36.6,1.7v36.6c0,5.7-4.8,10.2-10.4,9.9l-175.7-9.3
	c-5.3-0.3-9.4-4.6-9.4-9.9V204.9c0-5.7,4.8-10.2,10.4-9.9l175.7,9.3c5.3,0.3,9.4,4.6,9.4,9.9v32.5l-36.6-1.7
	C217.1,245,207.8,254.4,207.8,265.9z"/>
<rect x="181.2" y="175.8" class="st3" width="0.5" height="0.5"/>
<path class="st2" d="M225.5,149.4v6.3h-27.2c-10.9,1.8-23.1,3.8-35.6,5.8v14.2H125v-8.1c-2.6,0.4-5.3,0.8-7.8,1.3v14.4H83.6V174
	c-1.2,0.2-2.4,0.4-3.5,0.5c-5.6,0.8-10.4,4.2-10.4,9.9v6.2c3.2-2.2,7-3.3,10.8-3.1l101.1,5.4v-2.6h-14.5v-28.5h28.5v14.5h21.5v18.5
	L239,196v-42c0-2.8-2.2-5-5-5L225.5,149.4z"/>
<rect x="191.8" y="123.5" class="st2" width="26.7" height="26.7"/>
<rect x="130.5" y="143.5" class="st1" width="26.7" height="26.7"/>
<rect x="89.1" y="155.1" class="st1" width="22.6" height="22.6"/>
<rect x="188.7" y="183.3" class="st1" width="21.5" height="11.7"/>
<rect x="174.2" y="168.8" class="st1" width="14.5" height="14.5"/>
<rect x="154.4" y="73.2" class="st1" width="36.3" height="36.3"/>
<rect x="212.2" y="48.5" class="st1" width="19" height="19"/>
<rect x="174.2" y="35.5" class="st2" width="12.7" height="12.7"/>
<rect x="121" y="114.9" class="st2" width="12.7" height="12.7"/>
<rect x="148" y="0" class="st1" width="12.7" height="12.7"/>
<rect x="166.8" y="48.2" class="st2" width="7.4" height="7.4"/>
<circle class="st2" cx="229.7" cy="266.6" r="9.5"/>
</svg>
