<?xml version="1.0" encoding="utf-8"?>
<!-- Generator: Adobe Illustrator 22.0.1, SVG Export Plug-In . SVG Version: 6.00 Build 0)  -->
<svg version="1.1" id="Слой_1" xmlns="http://www.w3.org/2000/svg" xmlns:xlink="http://www.w3.org/1999/xlink" x="0px" y="0px"
	 viewBox="0 0 300 300" style="enable-background:new 0 0 300 300;" xml:space="preserve">
<style type="text/css">
	.st0{fill:#4C4C4C;}
</style>
<path class="st0" d="M209.3,72.4c-2.9,12.3-5.7,24.2-8.5,36.3h-10.3c3.8-16.4,13.1-61.2,13.1-61.2s-34.7-9.3-46.8-12.2v27.4
	c1.4-0.3,2.9-0.5,4.3-0.5c10.4,0,18.8,8.4,18.8,18.8s-8.4,18.9-18.8,18.9c-1.5,0-3-0.2-4.3-0.5v9.3h-10.1V22.4
	c-6.9,0-41.8,0.7-53.1,0.8c-4.1,0-5.4,1.2-5.3,5.4c0.3,24.7,0.3,49.3,0.4,74v6.2l138.7,0.2c1.9-4.8,3.4-8.8,5-12.8s3.1-8,4.9-12.5
	C227.8,80,219,76.4,209.3,72.4z M120.6,84.6c-10.4,0-18.8-8.4-18.8-18.9c0-10.4,8.4-18.8,18.8-18.8s18.8,8.4,18.8,18.8
	C139.5,76.2,131,84.6,120.6,84.6z"/>
<path class="st0" d="M78.5,108.8c3.5,0,6.4,0,10,0c0-2.3,0-4.3,0-6.2c-0.1-24.7-0.1-49.3-0.4-74c0-4.2,1.3-5.4,5.3-5.4
	c11.3-0.1,46.2-0.8,53.1-0.8c0,29,0,57.7,0,86.4c3.7,0,6.7,0,10.2,0c0-24.5,0-48.7,0-73.5c12.1,2.8,46.8,12.2,46.8,12.2
	s-9.3,44.7-13,61.2c3.7,0,6.9,0,10.3,0c2.9-12.2,5.6-24,8.5-36.3c9.7,4,18.6,7.6,27.8,11.3c-1.8,4.5-3.3,8.5-4.9,12.5
	c-1.6,4-3.1,8-5,12.8h11.2c0,0,6.5-18,8.9-24.1c2.3-6,1.6-7.6-4.1-10c-9.4-3.8-18.8-7.7-28.2-11.4c-2.8-1.1-3.5-2.6-2.8-5.3
	c1.1-4.2,2-8.4,2.9-12.6c1.2-5.6,0.2-7.2-5.3-8.5c-16.2-3.8-32.3-7.8-48.6-11.3c-4.1-0.9-5.4-2.6-5.2-6.7c0.2-6.2-1.1-7.3-7.2-7.2
	c-21,0.4-42,0.9-63,1.4c-6.1,0.1-7.5,1.6-7.5,7.8c0,12.8,0,25.7,0,38.5c0,0.8,0,1.6-0.1,2.2l0.3,12.5
	C78.5,85.9,78.5,97.3,78.5,108.8z"/>
<path class="st0" d="M258.1,217.4c-0.1-17.3-0.1-34.7,0-52c0-4-1.6-6.6-5.9-6.3c-4,0.3-4.6-1.8-4.6-5.2c0.1-8.7,0-17.3-0.1-26
	c0-7.7-0.9-8.6-8.6-8.6c-51.7,0-103.3,0-155-0.1c-3.7,0-7.7-0.6-11.2-1.9c-10-3.9-15.5-14.4-13.7-25.1c1.6-9.4,9.9-17.2,19.4-17.9
	L78.2,62c-0.2,1.1-0.9,2-2.9,2.5C58,68.8,49,80.4,48.9,98.3c-0.1,44.3,0,88.6,0,133c0,3.5,0.2,7,1.1,10.4
	c3.9,15,16.3,24.5,32.4,24.6c49.8,0.1,99.6,0.1,149.5,0c16.6,0,16,2.1,15.9-15.9c0-8.6,0-17.2,0-25.9
	C252.9,223.8,258.1,224.6,258.1,217.4z M237.3,256.3c-2.2,0-4.2,0-6.1,0c-49,0-98,0-147,0c-15.9,0-25.3-9.2-25.4-24.9
	c-0.1-35.2,0-70.3,0-105.5c0-1.4,0.2-2.8,0.4-5.3c10.1,9.4,21.8,8.7,33.5,8.7c46.2-0.1,92.3,0,138.5,0c6.5,0,6.5,0,6.5,6.6
	c0,6-0.3,12,0,18c0.2,4.1-1.1,5.5-5.3,5.4c-19.7-0.2-39.3-0.2-59,0c-14.7,0.1-26.4,8.5-30.9,21.8c-7.2,21.2,8.2,42.8,30.9,43
	c19.2,0.2,38.3,0.1,57.5,0.1c2,0,3.9,0,6.4,0C237.3,235.1,237.3,245.3,237.3,256.3z M242.2,213.3c-11.7-0.2-23.3-0.1-35-0.1
	c-11.2,0-22.3,0.1-33.5,0c-13-0.1-22.4-9.3-22.4-21.8c0-12.3,9.6-21.8,22.5-21.9c22.8-0.1,45.6,0,68.5-0.1c4.1,0,5.2,1.5,5.1,5.2
	c-0.2,11.2-0.2,22.3,0,33.5C247.4,211.9,246.1,213.4,242.2,213.3z"/>
<path class="st0" d="M38.9,33.9c2.9-1.7,5.5-3.2,8.5-5c4.5,8,9,15.8,13.6,24.1c-2.9,1.7-5.5,3.1-8.6,4.9
	C47.9,50,43.5,42.1,38.9,33.9z"/>
<path class="st0" d="M261.3,33.9c-4.6,8.2-8.9,15.8-13.6,24c-2.8-1.6-5.5-3.1-8.6-4.9c4.6-8.1,9-16,13.6-24
	C255.7,30.7,258.3,32.1,261.3,33.9z"/>
<path class="st0" d="M283.8,72.1c1.4,3.2,2.6,5.9,4,9c-6.4,3.1-12.4,5.9-18.9,9c-1.5-3.1-2.8-5.8-4.3-9
	C271,78.2,277.1,75.3,283.8,72.1z"/>
<path class="st0" d="M35.6,81.3c-1.5,3.1-2.7,5.7-4.2,8.9c-6.4-3-12.6-6-19.1-9c1.5-3.2,2.8-6,4.3-9C23,75.3,29.1,78.2,35.6,81.3z"
	/>
<path class="st0" d="M175.9,203.1c-6.7-0.4-12.1-6.2-11.8-13c0.3-6.7,6.2-12.3,12.7-12.1c6.9,0.2,12.5,6.4,12.1,13.3
	C188.4,198.2,182.6,203.5,175.9,203.1z"/>
</svg>
