<?xml version="1.0" encoding="utf-8"?>
<!-- Generator: Adobe Illustrator 22.0.1, SVG Export Plug-In . SVG Version: 6.00 Build 0)  -->
<svg version="1.1" id="Слой_1" xmlns="http://www.w3.org/2000/svg" xmlns:xlink="http://www.w3.org/1999/xlink" x="0px" y="0px"
	 viewBox="0 0 300 300" style="enable-background:new 0 0 300 300;" xml:space="preserve">
<style type="text/css">
	.st0{fill:#FDCE01;}
	.st1{fill:#4C4C4C;}
</style>
<g>
	<path class="st0" d="M99.8,173.3v62.4h115.3v-62.4L99.8,173.3L99.8,173.3z M157.5,223.4c-10.4,0-18.9-8.4-18.9-18.8
		c0-10.4,8.4-18.9,18.9-18.9c10.4,0,18.8,8.4,18.8,18.9C176.3,214.9,167.9,223.4,157.5,223.4z"/>
	<path class="st1" d="M79.5,204.3c0,3.3,0,6.3,0,9.2c-16.6,0.7-32-13.8-32.1-31.2c-0.3-46.5-0.3-93,0-139.4
		C47.5,25.3,62,11.3,79.7,11.3c53.1-0.2,106.3-0.1,159.4,0c5.4,0,6.8,1.5,6.8,6.8c0.1,9.8,0.1,19.7,0.1,29.5c0,1.8,0,3.6,0,5.5
		c1.9,0.2,3.2,0.4,4.6,0.5c3.8,0.3,5.8,2.2,5.8,6c0,17.7,0,35.3,0,53c0,3.9-2,5.8-5.8,6.1c-1.3,0.1-2.6,0.2-4.6,0.4
		c0,8.6,0,17,0,25.5c0.1,14.4,0.8,13.6-13.5,13.6c-50,0-99.9,0-149.9,0c-13,0-22.4,7-24.8,18.1c-2.6,12.2,4.9,24.2,17,27
		C76.2,203.5,77.7,203.8,79.5,204.3z M57,155.9c0.4,0.2,0.8,0.4,1.2,0.6c8.2-7.6,18.1-8.5,28.5-8.5c47.5,0.2,95,0.1,142.4,0.1
		c2.1,0,4.2,0,6.6,0c0-10,0-19.4,0-29.5c-2.2,0-4.1,0-6.1,0c-19,0-38,0.1-57,0c-19.2-0.2-33.5-14-33.6-32.3
		c-0.1-18.7,14.1-32.6,34.1-32.8c18.8-0.2,37.7,0,56.5-0.1c1.9,0,3.9,0,6,0c0-11.1,0-21.4,0-32.4c-2.4,0-4.3,0-6.3,0
		c-48.6,0-97.3,0-145.9,0C66.2,21.1,57,30.3,57,47.6c0,34.3,0,68.6,0,103C57,152.3,57,154.1,57,155.9z M205.6,107.9
		c11.8,0,23.6-0.1,35.5,0.1c3.8,0.1,4.9-1.2,4.8-4.9c-0.2-11.3-0.2-22.7,0-34c0.1-4.1-1.5-5-5.3-5c-22.8,0.1-45.6,0-68.4,0.1
		c-13,0.1-22.3,9.3-22.4,21.8c0,12.6,9.2,21.8,22.3,21.9C183.3,107.9,194.5,107.9,205.6,107.9z"/>
	<path class="st1" d="M90.1,173.3h9.6c0,20.8,0,41.3,0,62.4c38.6,0,76.6,0,115.3,0c0-20.6,0-41.3,0-62.3h10.1c0,0,0,44.7,0,64.5
		c0,7.3-0.8,8.2-8,8.2c-39.8,0-79.6,0-119.4,0c-6.8,0-7.7-0.9-7.7-7.4C90.1,218.4,90.1,173.3,90.1,173.3z"/>
	<path class="st1" d="M163.6,296.6c-3.1,0-5.9,0-9.1,0c0-11.9,0-23.7,0-36.1c2.9,0,5.9,0,9.1,0C163.6,272.4,163.6,284.2,163.6,296.6
		z"/>
	<path class="st1" d="M131.5,260.2c3.2,0,6,0,9.1,0c0,7.8,0,15.4,0,23.2c-3,0-5.9,0-9.1,0C131.5,275.8,131.5,268.3,131.5,260.2z"/>
	<path class="st1" d="M186.3,283.5c-3.4,0-6.2,0-9.4,0c0-7.6,0-15.3,0-23.5c2.3,0,4.5-0.3,6.5,0.1c1.1,0.2,2.8,1.6,2.8,2.4
		C186.4,269.5,186.3,276.4,186.3,283.5z"/>
	<path class="st1" d="M187.2,86.5c0,6.8-5.4,12.5-12.2,12.6c-7,0.1-12.7-5.6-12.6-12.7c0.1-6.8,5.7-12.4,12.4-12.4
		C181.5,74.1,187.2,79.8,187.2,86.5z"/>
</g>
</svg>
