<?xml version="1.0" encoding="utf-8"?>
<!-- Generator: Adobe Illustrator 22.0.1, SVG Export Plug-In . SVG Version: 6.00 Build 0)  -->
<svg version="1.1" id="Слой_1" xmlns="http://www.w3.org/2000/svg" xmlns:xlink="http://www.w3.org/1999/xlink" x="0px" y="0px"
	 viewBox="0 0 79.3 62.8" style="enable-background:new 0 0 79.3 62.8;" xml:space="preserve">
<style type="text/css">
	.st0{fill:#FFCE00;}
	.st1{fill:#B7991A;}
	.st2{fill:#7F6700;}
	.st3{opacity:0.56;fill:url(#SVGID_1_);enable-background:new    ;}
</style>
<path class="st0" d="M63.2,32v7.2l6.2,3.6V28.5L63.2,32z M69.2,42.4l-5.7-3.3v-7.2l5.7-3.3V42.4z"/>
<path class="st0" d="M57,14.1v7.2l6.2-3.6v-7.2L57,14.1z M63,17.5l-5.7,3.3v-6.6l5.7-3.3V17.5z"/>
<path class="st0" d="M50.8,10.5v7.2l6.2,3.6v-7.2L50.8,10.5z M56.8,20.8l-5.7-3.3v-6.6l5.7,3.3V20.8z"/>
<path class="st0" d="M38.4,17.7l6.2,3.6l6.2-3.6v-7.2L38.4,17.7z M50.6,17.5l-6.2,3.6l-5.7-3.3l11.9-6.9V17.5z"/>
<path class="st0" d="M32.2,35.6v7.2l6.2-3.6V32L32.2,35.6z M38.1,39.1l-5.7,3.3v-6.6l5.7-3.3V39.1z"/>
<path class="st0" d="M38.4,39.2l-6.2,3.6l18.7,10.8v-7.2L38.4,39.2z M50.6,53.2L32.7,42.8l5.7-3.3l12.2,7
	C50.6,46.5,50.6,53.2,50.6,53.2z"/>
<path class="st0" d="M63.2,39.2l-12.4,7.2v7.2l18.7-10.8L63.2,39.2z M51,46.5l12.2-7l5.7,3.3L51,53.2V46.5z"/>
<path class="st0" d="M32.2,28.5L25.9,32l6.3,3.6l6.2-3.6L32.2,28.5z M26.4,32l5.7-3.3l5.7,3.3l-5.7,3.3L26.4,32z"/>
<polygon class="st1" points="75.7,17.7 50.8,32 38.4,24.9 25.9,17.7 50.8,3.3 63.2,10.5 57,14.1 50.8,10.5 38.4,17.7 44.6,21.3 
	50.8,24.9 57,21.3 63.2,17.7 69.5,14.1 "/>
<path class="st0" d="M50.8,32v7.2l6.2-3.6l12.4-7.2v14.4L57,50l-6.2,3.6v7.2l24.9-14.4V17.7L50.8,32z"/>
<polygon class="st2" points="50.8,32 50.8,39.2 44.6,35.6 38.4,32 32.2,28.5 25.9,24.9 25.9,17.7 38.4,24.9 "/>
<polygon class="st2" points="50.8,53.6 50.8,60.8 25.9,46.4 25.9,32 32.2,35.6 32.2,42.8 44.6,50 "/>
<linearGradient id="SVGID_1_" gradientUnits="userSpaceOnUse" x1="2.3" y1="33.6" x2="50.8" y2="33.6" gradientTransform="matrix(1 0 0 1 0 20)">
	<stop  offset="0" style="stop-color:#000000;stop-opacity:0.3"/>
	<stop  offset="0.9527" style="stop-color:#000000"/>
</linearGradient>
<polygon class="st3" points="50.8,60.8 2.3,50 25.9,46.4 "/>
</svg>
