<svg version="1.1" id="sup" xmlns="http://www.w3.org/2000/svg" xmlns:xlink="http://www.w3.org/1999/xlink" x="0px" y="0px" viewBox="0 0 50 50" style="enable-background:new 0 0 50 50;" xml:space="preserve">
	<style type="text/css">
	.st0{fill:#FDCE01;}
	.st1{fill:#ffffff;}
	</style>
	<path id="da" class="st1" d="M24.3,1.8C12.6,2.2,3.5,12.3,3.5,24l0,13.6c0,1.7,1.3,3,3,3h1h3c0.6,0,1-0.4,1-1V27.9c0-0.6-0.4-1-1-1h-3l0-3
	c0-9.9,8.1-18.3,18-18.2c9.6,0.2,17.4,8,17.4,17.7v3.4h-3c-0.6,0-1,0.4-1,1v11.7c0,0.6,0.4,1,1,1h3h0h1c1.7,0,3-1.3,3-3V23.5
	C46.8,11.2,36.7,1.3,24.3,1.8z"></path>
	<path id="ja" class="st0" d="M42.5,40.6c-0.9,2.8-3.6,4.9-6.8,4.9H30v2.3H19.1v-6.4H30v2.1h5.7c2,0,3.8-1.2,4.6-2.9H42.5z"></path>
</svg>