<svg viewBox="0 0 1024 1024" fill="none" xmlns="http://www.w3.org/2000/svg">
<path d="M588.8 409.6c14.139 0 25.6-11.462 25.6-25.6v-204.8c0-42.347-34.451-76.8-76.8-76.8h-460.8c-42.347 0-76.8 34.453-76.8 76.8v614.4c0 38.178 27.488 79.862 62.576 94.899l264.278 113.262c9.134 3.915 18.373 5.859 27.24 5.859 10.926-0.002 21.288-2.955 30.173-8.814 16.099-10.616 25.333-29.426 25.333-51.606v-76.8h128c42.349 0 76.8-34.451 76.8-76.8v-204.8c0-14.139-11.461-25.6-25.6-25.6s-25.6 11.461-25.6 25.6v204.8c0 14.115-11.485 25.6-25.6 25.6h-128v-486.4c0-38.176-27.488-79.861-62.576-94.899l-196.702-84.301h387.278c14.115 0 25.6 11.485 25.6 25.6v204.8c0 14.138 11.461 25.6 25.6 25.6zM326.854 284.962c16.51 7.075 31.546 29.877 31.546 47.838v614.4c0 5.344-1.421 8.272-2.317 8.862-0.898 0.589-4.15 0.742-9.061-1.362l-264.278-113.262c-16.509-7.074-31.544-29.875-31.544-47.838v-614.4c0-4.037 0.939-7.859 2.611-11.258l273.043 117.019z" fill="#28334E">
</path>
<path d="M939.701 468.299l-153.6-153.6c-9.997-9.998-26.206-9.998-36.203 0-9.998 9.997-9.998 26.206 0 36.203l109.899 109.898h-322.197c-14.139 0-25.6 11.462-25.6 25.6s11.461 25.6 25.6 25.6h322.197l-109.899 109.899c-9.998 9.997-9.998 26.206 0 36.203 5 4.998 11.55 7.498 18.102 7.498s13.102-2.499 18.101-7.499l153.6-153.6c9.998-9.997 9.998-26.205 0-36.202z" fill="#28334E">
</path>
</svg>
