<?xml version="1.0" encoding="utf-8"?>
<!-- Generator: Adobe Illustrator 22.0.1, SVG Export Plug-In . SVG Version: 6.00 Build 0)  -->
<svg version="1.1" id="Слой_1" xmlns="http://www.w3.org/2000/svg" xmlns:xlink="http://www.w3.org/1999/xlink" x="0px" y="0px"
	 viewBox="0 0 56 56" style="enable-background:new 0 0 56 56;" xml:space="preserve">
<style type="text/css">
	.st0{fill:#FF6600;}
	.st1{fill:#4C4C4C;}
	.st2{fill:#FFFFFF;}
</style>
<path class="st0" d="M28,0C12.5,0,0,12.5,0,28c0,3.1,0.5,6,1.4,8.8h8.3V13.2L28,31.4l18.2-18.2v23.6h8.3C55.5,34,56,31.1,56,28
	C56,12.5,43.5,0,28,0z"/>
<path class="st1" d="M39.9,28L28,40L16.1,28v14.6H4.1C9,50.6,17.9,56,28,56s19-5.4,23.9-13.4H39.9V28z"/>
<path class="st2" d="M46.2,13.2L28,31.4L9.8,13.2v23.6H1.4c0.7,2,1.6,4,2.7,5.8h11.9V28L28,40l11.9-12v14.6h11.9
	c1.1-1.8,2-3.7,2.7-5.8h-8.3V13.2z"/>
</svg>
