<?xml version="1.0" encoding="utf-8"?>
<!-- Generator: Adobe Illustrator 22.0.1, SVG Export Plug-In . SVG Version: 6.00 Build 0)  -->
<svg version="1.1" id="TUSD" xmlns="http://www.w3.org/2000/svg" xmlns:xlink="http://www.w3.org/1999/xlink" x="0px" y="0px"
	 viewBox="0 0 56 56" style="enable-background:new 0 0 56 56;" xml:space="preserve">
<style type="text/css">
	.st0{fill:#002868;}
	.st1{fill:#FFFFFF;}
</style>
<path id="Coin_BG" class="st0" d="M28,56L28,56C12.6,56,0,43.4,0,28l0,0C0,12.6,12.6,0,28,0l0,0c15.4,0,28,12.6,28,28l0,0
	C56,43.4,43.4,56,28,56z"/>
<path id="BG_1_" class="st1" d="M42.1,44.8H13.9c-1.5,0-2.7-1.2-2.7-2.7V13.9c0-1.5,1.2-2.7,2.7-2.7h28.2c1.5,0,2.7,1.2,2.7,2.7
	v28.2C44.8,43.6,43.6,44.8,42.1,44.8z"/>
<g>
	<path class="st0" d="M17.8,41.4c-0.1,0-0.2-0.1-0.2-0.2v-4.5c0-0.1-0.1-0.2-0.2-0.2h-1.6c-0.1,0-0.2-0.1-0.2-0.2v-0.9
		c0-0.1,0.1-0.2,0.2-0.2h4.9c0.1,0,0.2,0.1,0.2,0.2v0.9c0,0.1-0.1,0.2-0.2,0.2h-1.6c-0.1,0-0.2,0.1-0.2,0.2v4.5
		c0,0.1-0.1,0.2-0.2,0.2H17.8z"/>
	<path class="st0" d="M25.8,35.5c0-0.1,0.1-0.2,0.2-0.2H27c0.1,0,0.2,0.1,0.2,0.2v3.1c0,1.8-1,2.9-2.7,2.9c-1.6,0-2.7-1.1-2.7-2.9
		v-3.1c0-0.1,0.1-0.2,0.2-0.2h1.1c0.1,0,0.2,0.1,0.2,0.2v3.1c0,0.9,0.5,1.5,1.3,1.5c0.8,0,1.3-0.6,1.3-1.5L25.8,35.5L25.8,35.5z"/>
	<path class="st0" d="M32.1,37.3c-0.1,0-0.2-0.1-0.2-0.2c-0.2-0.4-0.6-0.7-1.2-0.7c-0.6,0-1,0.2-1,0.6c0,0.4,0.4,0.6,1.4,0.7
		c1.5,0.2,2.3,0.6,2.3,1.8c0,1.3-1.1,2-2.6,2c-1.3,0-2.4-0.6-2.5-1.9c0-0.1,0-0.2,0.2-0.2h1c0.1,0,0.2,0.1,0.2,0.2
		c0.1,0.4,0.6,0.8,1.2,0.8c0.6,0,1.1-0.2,1.1-0.7c0-0.5-0.5-0.6-1.6-0.8c-1.2-0.2-2.1-0.5-2.1-1.6c0-1.1,1-1.9,2.5-1.9
		c1.4,0,2.3,0.7,2.5,1.8c0,0.1,0,0.2-0.1,0.2L32.1,37.3L32.1,37.3z"/>
	<path class="st0" d="M34.5,41.4c-0.1,0-0.2-0.1-0.2-0.2v-5.7c0-0.1,0.1-0.2,0.2-0.2H37c1.8,0,3.2,1.2,3.2,3c0,1.8-1.4,3-3.2,3
		L34.5,41.4L34.5,41.4z M37,40.2c1,0,1.7-0.8,1.7-1.8c0-1.1-0.8-1.8-1.7-1.8h-1c-0.1,0-0.2,0.1-0.2,0.2v3.3c0,0.1,0.1,0.2,0.2,0.2
		L37,40.2L37,40.2z"/>
</g>
<path id="BG" class="st0" d="M43.9,32H12.1c-0.2,0-0.4-0.2-0.4-0.4V13.9c0-1.2,1-2.2,2.2-2.2h28.2c1.2,0,2.2,1,2.2,2.2v17.7
	C44.4,31.8,44.2,32,43.9,32z"/>
<path class="st1" d="M34.6,15.4h-5h-2.9h-5.3c-0.2,0-0.3,0.2-0.3,0.3v2.9c0,0.2,0.2,0.3,0.3,0.3h5v9.1c0,0.2,0.2,0.3,0.3,0.3h2.9
	c0.2,0,0.3-0.2,0.3-0.3V19h4.6c0.2,0,0.3-0.2,0.3-0.3v-2.9C34.9,15.6,34.8,15.4,34.6,15.4z"/>
</svg>
