<?xml version="1.0" encoding="UTF-8"?>
<svg width="56px" height="56px" viewBox="0 0 56 56" version="1.1" xmlns="http://www.w3.org/2000/svg" xmlns:xlink="http://www.w3.org/1999/xlink">
    <!-- Generator: Sketch 53.2 (72643) - https://sketchapp.com -->
    <title>dash</title>
    <desc>Created with Sketch.</desc>
    <g id="dash" stroke="none" stroke-width="1" fill="none" fill-rule="evenodd">
        <g id="DASH" fill="#157DD1">
            <rect id="Rectangle-1" x="0" y="0" width="56" height="56" rx="28"></rect>
        </g>
        <path d="M32.6152858,15 C43.1788687,15 45.0456368,20.7608318 43.5464114,28.8591187 C42.5403905,34.2974426 40.0278804,38.464621 35.805498,40.4141952 C33.9024115,41.2945543 32.1024694,41.786306 27.8735496,41.786306 L15.8841045,41.786306 L16.8821354,36.217962 L27.4224745,36.2223202 C33.7607696,36.2332158 35.45103,33.4846358 36.274006,31.0759965 C36.5827127,30.1723936 37.2974597,27.3853162 37.3207035,25.7364587 C37.3657384,22.5179181 35.7866124,20.5792395 30.4463483,20.5792395 L19.6031133,20.5661649 L20.598965,15 L32.6152858,15 Z M15.4141438,25.5969959 L27.7173803,25.5969959 C27.7173803,25.5969959 27.5895394,26.2543598 27.1994793,27.8777943 C26.901668,29.1169796 26.4505929,31.1682454 23.3032365,31.1682454 L11,31.1682454 C11,31.1682454 11.1278409,30.5108815 11.517901,28.887447 C11.8157123,27.6482617 12.2667874,25.5969959 15.4141438,25.5969959 Z" id="Combined-Shape" fill="#FFFFFF" fill-rule="nonzero"></path>
    </g>
</svg>