<svg width="56" height="56" xmlns="http://www.w3.org/2000/svg"><g fill="none" fill-rule="evenodd"><circle fill="#44B3E2" cx="28" cy="28" r="28"/><path d="M17.35 34.147c-1.153-.843-1.77-1.849-1.046-3.267.246-.482-.218-.472-.448-.556-2.232-.812-4.505-1.01-6.836-.43-.216.054-.493.401-.71.038-.143-.237.072-.438.222-.619 2.264-2.727 4.861-4.972 8.518-5.721a7.791 7.791 0 0 1 2.45-.109c.824.094 2.414-.241 2.788-.895 8.723 5.532 13.059 8.32 13.008 8.365-1.414 1.234-.593 2.442.145 4.427 1.264 3.4.118 6.706-1.64 9.77-.293.508-.53 1.427-1.047 1.336-.56-.098-.315-1.019-.435-1.578-.424-1.97-1.342-3.698-2.675-5.221-.165-.188-.352-.498-.649-.158-1.158 1.33-2.4.905-3.66.183-.481-.065-.827-.385-1.222-.614-1.785-1.295-3.647-2.485-5.43-3.783-.43-.405-1.105-.543-1.333-1.168" fill="#5A6A73"/><path d="M24.301 38.98c.381.195.751.405 1.033.732-1.316 2.03-2.914 3.792-5.11 4.936-1.524.794-3.182 1.344-4.71.17-1.495-1.148-1.438-2.842-1.142-4.51.412-2.32 1.489-4.337 2.978-6.161l1.395.982c-.007.645-.488 1.088-.742 1.625-.493 1.044-.884 2.106-.822 3.275.081 1.528 1.118 2.286 2.634 1.965 1.077-.229 1.92-.823 2.707-1.544.566-.518.987-1.212 1.78-1.47" fill="#EE8100"/><path d="M37.407 28.084c-3.105 3.385-7.264 8.106-10.28 11.57-.78.897-1.146.968-2.172.268a698.22 698.22 0 0 1-8.036-5.554c-1.064-.747-1.123-1.1-.505-2.175 2.39-4.163 6.09-9.47 8.448-13.648 2.137-3.787 5.4-5.917 9.477-7.097a22.547 22.547 0 0 1 4.919-.876c.847-.051 1.236.22 1.44 1.003.515 1.985.742 4.003.84 6.031.076 4.045-1.37 7.468-4.13 10.478z" fill="#FFF"/><path d="M24.302 39.499c-1.138 1.234-2.21 2.564-3.79 3.284-1.118.51-2.316.981-3.504.125-1.252-.903-1.25-2.216-1.014-3.503a9.265 9.265 0 0 1 2.003-4.276l6.305 4.37" fill="#EB0"/><path d="M32.703 26.017c-2.683-.008-4.946-2.328-4.913-5.036.035-2.765 2.304-4.978 5.089-4.964 2.68.014 4.946 2.342 4.91 5.044-.036 2.778-2.28 4.964-5.086 4.956" fill="#5A6A73"/></g></svg>