<?xml version="1.0" encoding="UTF-8"?>
<svg width="56px" height="56px" viewBox="0 0 56 56" version="1.1" xmlns="http://www.w3.org/2000/svg" xmlns:xlink="http://www.w3.org/1999/xlink">
    <!-- Generator: Sketch 53.2 (72643) - https://sketchapp.com -->
    <title>litecoin</title>
    <desc>Created with Sketch.</desc>
    <g id="litecoin" stroke="none" stroke-width="1" fill="none" fill-rule="evenodd">
        <g id="Group" fill-rule="nonzero">
            <path d="M27.8920482,3.37349398 C14.3508246,3.37349398 3.37349398,14.3508246 3.37349398,27.8920482 C3.37349398,41.4332718 14.3508246,52.4106024 27.8920482,52.4106024 C41.4332718,52.4106024 52.4106024,41.4332718 52.4106024,27.8920482 C52.4106024,21.3893233 49.827405,15.1529331 45.2292841,10.5548122 C40.6311633,5.95669138 34.3947731,3.37349398 27.8920482,3.37349398 L27.8920482,3.37349398 Z" id="Path-Copy" fill="#FFFFFF"></path>
            <path d="M27.8920482,-3.55271368e-15 C12.4876953,-4.49595825e-15 -1.58780285e-14,12.4876953 -1.77635684e-14,27.8920482 C-1.96502787e-14,43.2964011 12.4876953,55.7840964 27.8920482,55.7840964 C43.2964011,55.7840964 55.7840964,43.2964011 55.7840964,27.8920482 C55.7840964,20.4946171 52.8454783,13.4001655 47.6147046,8.16939177 C42.3839309,2.93861807 35.2894793,-3.09975166e-15 27.8920482,-3.55271368e-15 L27.8920482,-3.55271368e-15 Z M28.3440964,28.8096386 L25.4428916,38.5995181 L40.9609639,38.5995181 C41.2111603,38.6001363 41.4465126,38.7183323 41.5964186,38.9186492 C41.7463246,39.118966 41.7933447,39.3780994 41.7233735,39.6183133 L40.3739759,44.266988 C40.2416872,44.7232354 39.8234721,45.0368967 39.3484337,45.0361446 L15.6462651,45.0361446 L19.6539759,31.5016867 L15.2212048,32.8510843 L16.1995181,29.686747 L20.6390361,28.3373494 L26.2660241,9.32433735 C26.3931449,8.86646388 26.8096276,8.54927503 27.2848193,8.54843373 L33.2896386,8.54843373 C33.539447,8.54754025 33.7751904,8.66395016 33.9263463,8.86283946 C34.0775022,9.06172875 34.1265419,9.32003353 34.0587952,9.56048193 L29.3359036,25.6385542 L33.7686747,24.2891566 L32.8173494,27.5074699 L28.3440964,28.8096386 Z" id="Shape" fill="#A5A8A9"></path>
        </g>
    </g>
</svg>