 
<svg version="1.1" xmlns="http://www.w3.org/2000/svg" xmlns:xlink="http://www.w3.org/1999/xlink" x="0px" y="0px"
	 viewBox="0 0 56 56" style="enable-background:new 0 0 56 56;" xml:space="preserve">
<style type="text/css">
	.st0{fill:#282828;}
</style>
<path class="st0" d="M47.1,50.3c-2.1-2.1-4.3-4.2-6.4-6.4c-2-1.9-3.9-3.9-5.9-5.8c-3.8-3.8-9.8-3.8-13.6,0c-3,3-5.9,5.9-8.9,8.8
	c-1.1,1.1-2.3,2.2-3.4,3.4c-2.6,0-5.1,0-7.7,0c0.4-0.4,0.7-0.8,1.1-1.2c1.3-1.3,2.6-2.5,3.8-3.8c3-2.9,5.9-5.8,8.9-8.8
	c1.1-1,2.1-2.1,3.2-3.1c2.2-2,4.9-3.1,7.9-3.5c4.4-0.5,8.4,0.6,11.8,3.5c0.9,0.8,1.7,1.7,2.6,2.5c3.5,3.5,7,6.9,10.5,10.4
	c1.2,1.2,2.5,2.4,3.7,3.7c0.1,0.1,0.1,0.1,0.2,0.2C52.2,50.3,49.7,50.3,47.1,50.3z"/>
<path class="st0" d="M9,5.7c1.5,1.5,2.9,2.9,4.4,4.4c2,2,4,4,6,5.9c0.9,0.9,1.8,1.8,2.8,2.6c3.8,3,9.2,2.6,12.6-0.8
	c2.8-2.8,5.7-5.6,8.5-8.4C44.5,8.2,45.7,7,47,5.7c2.6,0,5.1,0,7.7,0c-0.3,0.3-0.6,0.6-0.9,0.9c-2.7,2.7-5.5,5.4-8.2,8.1
	c-2.4,2.4-4.8,4.7-7.1,7.1c-2.3,2.3-5.1,3.7-8.3,4.1c-4.7,0.6-8.9-0.6-12.4-3.8c-1.4-1.3-2.8-2.7-4.2-4.1c-2.6-2.6-5.3-5.2-7.9-7.8
	C4.3,8.8,2.9,7.4,1.5,6C1.4,5.9,1.3,5.8,1.3,5.7C3.9,5.7,6.4,5.7,9,5.7z"/>
</svg>
