 
<svg version="1.1" xmlns="http://www.w3.org/2000/svg" xmlns:xlink="http://www.w3.org/1999/xlink" x="0px" y="0px"
	 viewBox="0 0 56 56" style="enable-background:new 0 0 56 56;" xml:space="preserve">
<style type="text/css">
	.st0{fill:#7F6700;}
	.st1{fill:#B7991A;}
	.st2{fill:#FFCE00;}
</style>
<path class="st0" d="M38.8,28v6.2l5.4,3.1V24.9L38.8,28z M44,37l-5-2.9v-6.2l5-2.9V37z"/>
<path class="st0" d="M33.4,12.4v6.2l5.4-3.1V9.3L33.4,12.4z M38.6,15.4l-5,2.9v-5.7l5-2.9V15.4z"/>
<path class="st0" d="M28,9.3v6.2l5.4,3.1v-6.2L28,9.3z M33.2,18.3l-5-2.9V9.7l5,2.9V18.3z"/>
<path class="st0" d="M17.2,15.6l5.4,3.1l5.4-3.1V9.3L17.2,15.6z M27.8,15.4l-5.4,3.1l-5-2.9l10.3-6V15.4z"/>
<path class="st0" d="M11.8,31.1l0,6.2l5.4-3.1V28L11.8,31.1z M17,34.1L12,37v-5.7l5-2.9V34.1z"/>
<path class="st0" d="M17.2,34.2l-5.4,3.1L28,46.7v-6.2L17.2,34.2z M27.8,46.3l-15.5-9l5-2.9l10.6,6.1V46.3z"/>
<path class="st0" d="M38.8,34.2L28,40.4v6.2l16.2-9.3L38.8,34.2z M28.2,40.6l10.6-6.1l5,2.9l-15.5,9V40.6z"/>
<path class="st0" d="M11.8,24.9L6.4,28l5.4,3.1l5.4-3.1L11.8,24.9z M6.9,28l5-2.9l5,2.9l-5,2.9L6.9,28z"/>
<polygon class="st1" points="49.6,15.6 28,28 17.2,21.8 6.4,15.6 28,3.1 38.8,9.3 33.4,12.4 28,9.3 17.2,15.6 22.6,18.7 28,21.8 
	33.4,18.7 38.8,15.6 44.2,12.4 "/>
<path class="st2" d="M28,28v6.2l5.4-3.1l10.8-6.2v12.4l-10.8,6.2L28,46.7v6.2l21.6-12.4V15.6L28,28z"/>
<polygon class="st0" points="28,28 28,34.2 22.6,31.1 17.2,28 11.8,24.9 6.4,21.8 6.4,15.6 17.2,21.8 "/>
<polygon class="st0" points="28,46.7 28,52.9 6.4,40.4 6.4,28 11.8,31.1 11.8,37.3 22.6,43.6 "/>
</svg>
