<?xml version="1.0" encoding="UTF-8"?>
<svg width="56px" height="56px" viewBox="0 0 56 56" version="1.1" xmlns="http://www.w3.org/2000/svg" xmlns:xlink="http://www.w3.org/1999/xlink">
    <!-- Generator: Sketch 53.2 (72643) - https://sketchapp.com -->
    <title>zcash</title>
    <desc>Created with Sketch.</desc>
    <g id="zcash" stroke="none" stroke-width="1" fill="none" fill-rule="evenodd">
        <g id="Group">
            <path d="M28,56 C12.536027,56 0,43.463973 0,28 C0,12.536027 12.536027,0 28,0 C43.463973,0 56,12.536027 56,28 C56,43.463973 43.463973,56 28,56 Z" id="Oval-Copy" fill="#FFC635"></path>
            <path d="M28,52.5 C14.4690236,52.5 3.5,41.5309764 3.5,28 C3.5,14.4690236 14.4690236,3.5 28,3.5 C41.5309764,3.5 52.5,14.4690236 52.5,28 C52.5,41.5309764 41.5309764,52.5 28,52.5 Z M28,47.0555556 C38.5240927,47.0555556 47.0555556,38.5240927 47.0555556,28 C47.0555556,17.4759073 38.5240927,8.94444444 28,8.94444444 C17.4759073,8.94444444 8.94444444,17.4759073 8.94444444,28 C8.94444444,38.5240927 17.4759073,47.0555556 28,47.0555556 Z M26.53,34.0977778 C30.1777778,34.0977778 33.6077778,34.0977778 37.1466667,34.0977778 C37.1466667,35.8944444 37.1466667,37.6366667 37.1466667,39.4333333 C35.0233333,39.4333333 32.9,39.4333333 30.6133333,39.4333333 C30.7222222,40.9577778 30.7766667,42.3733333 30.8855556,43.8977778 C29.0344444,43.8977778 27.2922222,43.8977778 25.3866667,43.8977778 C25.3866667,42.4822222 25.3866667,41.0122222 25.3866667,39.4877778 C23.1544444,39.4877778 21.0855556,39.4877778 18.8533333,39.4877778 C18.8533333,37.7455556 18.6355556,36.0033333 18.9622222,34.37 C19.1255556,33.4988889 20.1055556,32.7366667 20.7044444,31.9744444 C22.7733333,29.5244444 24.8422222,27.1288889 26.9655556,24.6788889 C27.7822222,23.7533333 28.5988889,22.8822222 29.5244444,21.8477778 C26.04,21.8477778 22.7188889,21.8477778 19.3433333,21.8477778 C19.3433333,20.0511111 19.3433333,18.3088889 19.3433333,16.5122222 C21.3033333,16.5122222 23.3177778,16.5122222 25.3866667,16.5122222 C25.3866667,14.9877778 25.3866667,13.5722222 25.3866667,12.0477778 C27.1833333,12.0477778 28.8711111,12.0477778 30.6677778,12.0477778 C30.6677778,13.4633333 30.6677778,14.8788889 30.6677778,16.4033333 C32.8455556,16.4033333 34.9688889,16.4033333 37.2555556,16.4033333 C37.2555556,18.2 37.4733333,19.9422222 37.1466667,21.5755556 C36.9833333,22.4466667 36.0033333,23.2088889 35.35,23.9711111 C33.2811111,26.4211111 31.2122222,28.8166667 29.0888889,31.2666667 C28.2722222,32.2466667 27.4555556,33.1177778 26.53,34.0977778 Z" id="Combined-Shape" fill="#000000" fill-rule="nonzero"></path>
        </g>
    </g>
</svg>