<svg width="56" height="56" xmlns="http://www.w3.org/2000/svg"><g fill="none" fill-rule="evenodd"><rect fill="#45CB3E" width="56" height="56" rx="28"/><path d="M37.885 17.592c-1.476-3.978-5.243-4.503-9.638-3.83l-1.523-5.649-3.324.823 1.482 5.5c-.874.216-1.762.454-2.645.692l-1.491-5.536-3.323.822 1.521 5.647c-.716.193-1.419.382-2.108.553l-.005-.018-4.585 1.133.99 3.672s2.442-.656 2.414-.599c1.346-.333 2.003.367 2.318 1.034l1.735 6.435a2.66 2.66 0 0 1 .358-.063l-.351.087 2.428 9.015c.06.453-.001 1.213-.942 1.448.053.028-2.416.597-2.416.597l.446 4.27 4.326-1.071c.805-.198 1.601-.38 2.38-.567l1.541 5.712 3.321-.82-1.523-5.653c.917-.206 1.801-.417 2.662-.63l1.515 5.626 3.325-.822-1.536-5.703c5.499-1.714 9.018-4.138 8.04-9.686-.785-4.468-3.299-5.927-6.684-5.93 1.654-1.492 2.377-3.579 1.292-6.489zm-1.358 13.366c1.152 4.27-6.046 5.532-8.299 6.091l-2.04-7.57c2.255-.556 9.139-2.974 10.339 1.48zm-11.272-4.943l-1.85-6.865c1.876-.465 7.605-2.54 8.697 1.511 1.046 3.885-4.97 4.89-6.847 5.354z" fill="#FFF"/></g></svg>