<?xml version="1.0" encoding="utf-8"?>
<!-- Generator: Adobe Illustrator 22.0.1, SVG Export Plug-In . SVG Version: 6.00 Build 0)  -->
<svg version="1.1" id="Слой_2" xmlns="http://www.w3.org/2000/svg" xmlns:xlink="http://www.w3.org/1999/xlink" x="0px" y="0px"
	 viewBox="0 0 56 56" style="enable-background:new 0 0 56 56;" xml:space="preserve">
<style type="text/css">
	.st0{fill:#3468D1;}
	.st1{fill:#FFFFFF;}
</style>
<circle class="st0" cx="28" cy="28" r="28"/>
<path class="st1" d="M21.5,31c-1.5,0-2.9-1.3-2.9-2.8c0-1.5,1.3-2.9,2.8-2.9c1.5,0,2.9,1.3,2.9,2.9C24.3,29.6,23,30.9,21.5,31z"/>
<path class="st1" d="M37.9,28.1c0,1.5-1.3,2.9-2.9,2.9c-1.5,0-2.9-1.3-2.9-2.8c0-1.5,1.4-2.9,2.9-2.9C36.5,25.2,37.9,26.6,37.9,28.1
	z"/>
<path class="st1" d="M24.9,31c1.6,0,2.9,1.2,2.9,2.8c0,1.6-1.3,2.9-2.8,2.9c-1.5,0-2.8-1.3-2.8-2.9C22,32.2,23.3,31,24.9,31z"/>
<path class="st1" d="M24.9,25c-1.6,0-2.9-1.2-2.9-2.8c0-1.6,1.3-2.9,2.8-2.9c1.6,0,2.9,1.3,2.9,2.8C27.7,23.8,26.5,25,24.9,25z"/>
<path class="st1" d="M31.6,25c-1.6,0-2.9-1.2-2.9-2.8c0-1.6,1.3-2.9,2.9-2.9c1.5,0,2.8,1.3,2.8,2.8C34.4,23.8,33.2,25,31.6,25z"/>
<path class="st1" d="M31.5,31c1.6,0,2.8,1.2,2.8,2.8c0,1.6-1.3,2.9-2.8,2.9c-1.6,0-2.9-1.3-2.9-2.8C28.7,32.2,29.9,31,31.5,31z"/>
<path class="st1" d="M36.4,22.2c0-1,0.8-1.7,1.8-1.7c1,0,1.8,0.8,1.8,1.8c0,1-0.8,1.8-1.8,1.8C37.2,24.1,36.4,23.3,36.4,22.2z"/>
<path class="st1" d="M28.2,18.3c-1,0-1.8-0.8-1.8-1.8c0-1,0.8-1.8,1.8-1.8c1,0,1.8,0.8,1.8,1.8C30,17.6,29.2,18.3,28.2,18.3z"/>
<path class="st1" d="M18.3,20.5c1.1,0,1.8,0.7,1.8,1.8c0,1-0.8,1.8-1.8,1.8c-0.9,0-1.8-0.9-1.8-1.8C16.5,21.3,17.3,20.5,18.3,20.5z"
	/>
<path class="st1" d="M38.1,35.5c-1,0-1.7-0.7-1.7-1.8c0-1,0.8-1.8,1.8-1.8c1,0,1.8,0.9,1.8,1.8C40,34.7,39.1,35.5,38.1,35.5z"/>
<path class="st1" d="M28.2,37.7c1,0,1.8,0.8,1.8,1.8c0,1-0.8,1.8-1.8,1.8c-1,0-1.8-0.8-1.8-1.8C26.4,38.5,27.2,37.7,28.2,37.7z"/>
<path class="st1" d="M18.3,35.5c-1,0-1.8-0.8-1.8-1.7c0-1,0.8-1.8,1.8-1.8c1,0,1.8,0.8,1.8,1.8C20.1,34.8,19.3,35.5,18.3,35.5z"/>
<path class="st1" d="M43,26.4c0.9,0,1.6,0.7,1.5,1.5c0,0.8-0.7,1.5-1.5,1.5c-0.8,0-1.5-0.7-1.5-1.5C41.5,27,42.2,26.4,43,26.4z"/>
<path class="st1" d="M34.1,40.8c0-0.8,0.7-1.5,1.5-1.5c0.8,0,1.5,0.7,1.5,1.5c0,0.8-0.7,1.5-1.6,1.5C34.7,42.4,34.1,41.7,34.1,40.8z
	"/>
<path class="st1" d="M34.1,15.1c0-0.9,0.6-1.5,1.5-1.5c0.8,0,1.5,0.6,1.5,1.5c0,0.8-0.7,1.6-1.5,1.6C34.8,16.6,34.1,16,34.1,15.1z"
	/>
<path class="st1" d="M14.9,27.9c0,0.8-0.7,1.5-1.6,1.5c-0.8,0-1.5-0.7-1.5-1.5c0-0.8,0.7-1.5,1.6-1.5C14.3,26.4,14.9,27.1,14.9,27.9
	z"/>
<path class="st1" d="M22.4,40.9c0,0.9-0.6,1.5-1.5,1.5c-0.8,0-1.5-0.7-1.5-1.5c0-0.8,0.7-1.5,1.5-1.5C21.7,39.3,22.4,40,22.4,40.9z"
	/>
<path class="st1" d="M20.9,13.6c0.9,0,1.5,0.7,1.5,1.5c0,0.8-0.7,1.5-1.5,1.5c-0.8,0-1.5-0.7-1.5-1.5C19.3,14.3,20,13.6,20.9,13.6z"
	/>
<path class="st1" d="M12.4,20.1c-0.7,0-1.2-0.5-1.2-1.2c0-0.7,0.6-1.3,1.2-1.3c0.7,0,1.2,0.6,1.2,1.3C13.6,19.5,13,20.1,12.4,20.1z"
	/>
<path class="st1" d="M44.1,20.1c-0.7,0-1.2-0.5-1.2-1.2c0-0.7,0.6-1.3,1.2-1.3c0.7,0,1.3,0.6,1.2,1.3C45.3,19.5,44.7,20.1,44.1,20.1
	z"/>
<path class="st1" d="M13.6,37.2c0,0.7-0.6,1.2-1.3,1.2c-0.6,0-1.2-0.6-1.2-1.2c0-0.7,0.6-1.2,1.3-1.2C13.1,36,13.6,36.5,13.6,37.2z"
	/>
<path class="st1" d="M44.1,35.9c0.7,0,1.2,0.6,1.2,1.2c0,0.7-0.6,1.3-1.3,1.2c-0.7,0-1.2-0.6-1.2-1.2C42.8,36.5,43.4,35.9,44.1,35.9
	z"/>
<path class="st1" d="M28.3,8.5c0.7,0,1.2,0.6,1.2,1.2c0,0.7-0.6,1.2-1.3,1.2c-0.7,0-1.2-0.6-1.2-1.2C27,9,27.6,8.5,28.3,8.5z"/>
<path class="st1" d="M28.2,47.5c-0.7,0-1.2-0.5-1.2-1.2c0-0.7,0.6-1.2,1.3-1.2c0.7,0,1.2,0.6,1.2,1.2C29.5,47,28.9,47.5,28.2,47.5z"
	/>
<path class="st1" d="M18.1,11.6c-0.6,0-1.1-0.4-1.1-1c0-0.5,0.5-1.1,1.1-1c0.5,0,1,0.5,1,1C19.2,11.2,18.7,11.6,18.1,11.6z"/>
<path class="st1" d="M8.2,27c0.6,0,1.1,0.5,1.1,1c0,0.6-0.5,1-1.1,1c-0.6,0-1-0.5-1-1.1C7.2,27.4,7.6,27,8.2,27z"/>
<path class="st1" d="M49.3,28c0,0.6-0.4,1-1,1c-0.6,0-1.1-0.5-1.1-1c0-0.6,0.5-1,1.1-1C48.9,27,49.3,27.4,49.3,28z"/>
<path class="st1" d="M38.3,11.6c-0.6,0-1-0.5-1-1c0-0.5,0.5-1,1-1c0.5,0,1.1,0.5,1.1,1C39.4,11.2,38.9,11.7,38.3,11.6z"/>
<path class="st1" d="M18.1,44.4c0.6,0,1.1,0.5,1,1c0,0.5-0.5,1-1,1c-0.5,0-1.1-0.5-1.1-1C17.1,44.8,17.5,44.4,18.1,44.4z"/>
<path class="st1" d="M39.4,45.4c0,0.5-0.5,1.1-1.1,1.1c-0.5,0-1-0.5-1-1c0-0.6,0.4-1,1-1.1C38.9,44.3,39.4,44.8,39.4,45.4z"/>
</svg>
