<svg width="56" height="56" version="1.1" xmlns="http://www.w3.org/2000/svg">
<style type="text/css">
	.st0{fill:#53AE94;}
	.st1{fill:#FFFFFF;}
</style>
<path width="56" height="56" class="st0" d="M28,0.2c15.4,0,27.8,12.5,27.8,27.8S43.4,55.8,28,55.8S0.2,43.4,0.2,28S12.6,0.2,28,0.2"/>
<path class="st1" d="M31.4,24.3v-4.1h9.5v-6.3H15.1v6.3h9.5v4.1c-7.7,0.4-13.5,1.9-13.5,3.7c0,1.8,5.8,3.3,13.5,3.7V45h6.8V31.7
	c7.7-0.4,13.4-1.9,13.4-3.7C44.9,26.2,39.1,24.6,31.4,24.3 M31.4,30.6L31.4,30.6c-0.2,0-1.2,0.1-3.4,0.1c-1.8,0-3-0.1-3.4-0.1v0
	c-6.8-0.3-11.9-1.5-11.9-2.9c0-1.4,5.1-2.6,11.9-2.9v4.6c0.4,0,1.7,0.1,3.5,0.1c2.1,0,3.2-0.1,3.4-0.1v-4.6
	c6.8,0.3,11.8,1.5,11.8,2.9C43.3,29.1,38.2,30.3,31.4,30.6"/>
</svg>
